<?xml version="1.0" standalone="no"?>
<!DOCTYPE svg PUBLIC "-//W3C//DTD SVG 20010904//EN"
 "http://www.w3.org/TR/2001/REC-SVG-20010904/DTD/svg10.dtd">
<svg version="1.0" xmlns="http://www.w3.org/2000/svg"
 width="192.000000pt" height="192.000000pt" viewBox="0 0 192.000000 192.000000"
 preserveAspectRatio="xMidYMid meet">
<metadata>
Created by potrace 1.11, written by Peter Selinger 2001-2013
</metadata>
<g transform="translate(0.000000,192.000000) scale(0.100000,-0.100000)"
fill="#000000" stroke="none">
<path d="M350 1595 l0 -125 435 0 435 0 0 -105 c0 -98 -1 -105 -20 -105 -15 0
-20 7 -20 25 0 23 -4 25 -45 25 -41 0 -45 -2 -45 -25 0 -23 4 -25 45 -25 41 0
45 -2 45 -25 0 -18 5 -25 20 -25 17 0 20 -7 20 -50 l0 -50 -45 0 c-41 0 -45
-2 -45 -25 0 -18 -5 -25 -20 -25 -17 0 -20 7 -20 50 0 43 -3 50 -20 50 -17 0
-20 -7 -20 -50 0 -47 -2 -50 -25 -50 -20 0 -25 5 -25 25 0 18 -5 25 -20 25
-15 0 -20 7 -20 25 0 18 -5 25 -20 25 -15 0 -20 -7 -20 -25 0 -18 5 -25 20
-25 15 0 20 -7 20 -25 0 -18 -5 -25 -20 -25 -15 0 -20 -7 -20 -25 0 -25 -1
-25 -90 -25 -89 0 -90 0 -90 25 0 23 -4 25 -45 25 -41 0 -45 -2 -45 -25 0 -18
-5 -25 -20 -25 -15 0 -20 -7 -20 -25 l0 -25 130 0 130 0 0 -50 c0 -47 2 -50
25 -50 23 0 25 3 25 50 l0 50 40 0 c36 0 40 3 40 25 l0 25 135 0 135 0 0 355
0 355 -175 0 -175 0 0 -50 0 -50 -135 0 -135 0 0 -25 c0 -25 -1 -25 -85 -25
-84 0 -85 0 -85 -25 0 -23 -4 -25 -45 -25 l-45 0 0 100 c0 93 -1 100 -20 100
-19 0 -20 -7 -20 -125z m830 -50 c0 -24 -2 -25 -65 -25 -63 0 -65 1 -65 25 0
24 2 25 65 25 63 0 65 -1 65 -25z"/>
<path d="M1570 1035 c0 -18 5 -25 20 -25 15 0 20 7 20 25 0 18 -5 25 -20 25
-15 0 -20 -7 -20 -25z"/>
<path d="M1350 935 c0 -20 5 -25 25 -25 l25 0 0 -100 0 -100 -25 0 c-20 0 -25
-5 -25 -25 0 -18 -5 -25 -20 -25 -15 0 -20 -7 -20 -25 0 -18 -5 -25 -20 -25
-15 0 -20 -7 -20 -25 0 -20 -5 -25 -25 -25 -20 0 -25 -5 -25 -25 0 -18 -5 -25
-20 -25 -18 0 -20 -7 -20 -55 l0 -55 -90 0 c-89 0 -90 0 -90 25 0 23 -4 25
-40 25 -38 0 -40 2 -40 30 0 25 -4 30 -25 30 -21 0 -25 -5 -25 -30 l0 -30
-240 0 -240 0 0 -25 0 -25 240 0 240 0 0 -25 c0 -20 5 -25 25 -25 20 0 25 5
25 25 0 18 5 25 20 25 15 0 20 -7 20 -25 0 -24 2 -25 65 -25 63 0 65 -1 65
-25 0 -18 5 -25 20 -25 15 0 20 -7 20 -25 0 -20 5 -25 25 -25 20 0 25 5 25 25
0 18 5 25 20 25 15 0 20 7 20 25 0 25 1 25 90 25 l90 0 0 80 c0 73 2 80 20 80
19 0 20 7 20 200 0 193 -1 200 -20 200 -15 0 -20 7 -20 25 0 20 -5 25 -25 25
-20 0 -25 -5 -25 -25z"/>
</g>
</svg>
